<svg preserveAspectRatio="none" width="100%" height="100%" overflow="visible" style="display: block;" viewBox="0 0 28.21 28.0644" fill="none" xmlns="http://www.w3.org/2000/svg">
<g id="Vector">
<path d="M14.105 1.6085C17.4409 1.6085 20.5767 2.90051 22.9356 5.24718C25.2944 7.59385 26.5932 10.7135 26.5932 14.0322C26.5932 17.3509 25.2944 20.4705 22.9356 22.8172C20.5767 25.1638 17.4409 26.4559 14.105 26.4559C10.7691 26.4559 7.63325 25.1638 5.27441 22.8172C2.91556 20.4705 1.61684 17.3509 1.61684 14.0322C1.61684 10.7135 2.91556 7.59385 5.27441 5.24718C7.63325 2.90051 10.7691 1.6085 14.105 1.6085ZM14.105 0C6.31531 0 0 6.28183 0 14.0322C0 21.7825 6.31531 28.0644 14.105 28.0644C21.8947 28.0644 28.21 21.7817 28.21 14.0322C28.21 6.2827 21.8947 0 14.105 0Z" fill="var(--fill-0, #BDBDBD)"/>
<path d="M12.5423 20.2236L6.1309 13.8452L9.04034 10.9508L12.5423 14.4339L19.1697 7.8399L22.08 10.7352L12.5423 20.2236Z" fill="var(--fill-0, #BDBDBD)"/>
</g>
</svg>
