<svg width="330" height="60" viewBox="0 0 330 60" fill="none" xmlns="http://www.w3.org/2000/svg">
<g filter="url(#filter0_d_505_3552)">
<rect x="5" y="5" width="320" height="50" rx="25" fill="url(#paint0_linear_505_3552)" shape-rendering="crispEdges"/>
<rect x="6" y="6" width="318" height="48" rx="24" stroke="white" stroke-width="2" shape-rendering="crispEdges"/>
<g filter="url(#filter1_d_505_3552)">
<rect x="83" y="15" width="30" height="30" rx="15" fill="white"/>
<rect x="83.75" y="15.75" width="28.5" height="28.5" rx="14.25" stroke="black" stroke-width="1.5"/>
<path d="M98 29.2222C97.5757 29.2222 97.1687 29.3861 96.8686 29.6778C96.5686 29.9696 96.4 30.3652 96.4 30.7778C96.4 31.1903 96.5686 31.586 96.8686 31.8777C97.1687 32.1694 97.5757 32.3333 98 32.3333C98.4243 32.3333 98.8313 32.1694 99.1314 31.8777C99.4314 31.586 99.6 31.1903 99.6 30.7778C99.6 30.3652 99.4314 29.9696 99.1314 29.6778C98.8313 29.3861 98.4243 29.2222 98 29.2222Z" fill="black"/>
<path d="M104.4 24.5556H102L100.144 23.1633C100.005 23.0569 99.833 22.9993 99.656 23H96.344C96.168 23 95.992 23.0545 95.856 23.1633L94 24.5556H91.6C90.72 24.5556 90 25.2556 90 26.1111V35.4444C90 36.3 90.72 37 91.6 37H104.4C105.28 37 106 36.3 106 35.4444V26.1111C106 25.2556 105.28 24.5556 104.4 24.5556ZM98 33.8889C96.264 33.8889 94.8 32.4656 94.8 30.7778C94.8 29.09 96.264 27.6667 98 27.6667C99.736 27.6667 101.2 29.09 101.2 30.7778C101.2 32.4656 99.736 33.8889 98 33.8889ZM103.6 27.6667C103.16 27.6667 102.8 27.3167 102.8 26.8889C102.8 26.4611 103.16 26.1111 103.6 26.1111C104.04 26.1111 104.4 26.4611 104.4 26.8889C104.4 27.3167 104.04 27.6667 103.6 27.6667Z" fill="black"/>
</g>
<g filter="url(#filter2_d_505_3552)">
<path d="M135.582 33.462H133.458V30.654H131.55V28.944H133.458V27.468H131.55V25.74H133.458V22.014H135.582V33.462ZM131.388 25.272H123.324V23.58H126.42V21.996H128.508V23.58H131.388V25.272ZM127.446 25.794C128.106 25.794 128.694 25.92 129.21 26.172C129.738 26.424 130.152 26.778 130.452 27.234C130.752 27.678 130.902 28.182 130.902 28.746C130.902 29.31 130.752 29.82 130.452 30.276C130.152 30.72 129.738 31.068 129.21 31.32C128.694 31.572 128.106 31.698 127.446 31.698C126.798 31.698 126.21 31.572 125.682 31.32C125.154 31.068 124.74 30.72 124.44 30.276C124.152 29.82 124.008 29.31 124.008 28.746C124.008 28.182 124.152 27.678 124.44 27.234C124.74 26.778 125.154 26.424 125.682 26.172C126.21 25.92 126.798 25.794 127.446 25.794ZM127.446 27.468C127.002 27.468 126.642 27.582 126.366 27.81C126.102 28.026 125.97 28.338 125.97 28.746C125.97 29.166 126.102 29.49 126.366 29.718C126.642 29.934 127.002 30.042 127.446 30.042C127.89 30.042 128.244 29.934 128.508 29.718C128.784 29.49 128.922 29.166 128.922 28.746C128.922 28.338 128.784 28.026 128.508 27.81C128.232 27.582 127.878 27.468 127.446 27.468ZM135.888 36.756H125.862V32.508H127.986V35.046H135.888V36.756ZM149.506 37.026H147.49V29.52H146.302V36.324H144.322V32.04L143.17 33.624C141.934 32.952 141.034 31.806 140.47 30.186C139.942 32.046 139.036 33.372 137.752 34.164L136.474 32.508C137.494 31.908 138.232 31.008 138.688 29.808C139.156 28.608 139.39 27.234 139.39 25.686V25.254H136.978V23.544H143.638V25.254H141.442V25.686C141.442 27.114 141.664 28.374 142.108 29.466C142.564 30.558 143.302 31.38 144.322 31.932V22.23H146.302V27.756H147.49V21.996H149.506V37.026ZM158.09 22.608C158.822 22.608 159.482 22.746 160.07 23.022C160.658 23.298 161.114 23.682 161.438 24.174C161.774 24.654 161.942 25.206 161.942 25.83C161.942 26.442 161.774 26.994 161.438 27.486C161.114 27.966 160.658 28.344 160.07 28.62C159.482 28.884 158.822 29.016 158.09 29.016C157.358 29.016 156.698 28.878 156.11 28.602C155.534 28.326 155.078 27.948 154.742 27.468C154.418 26.988 154.256 26.442 154.256 25.83C154.256 25.206 154.418 24.654 154.742 24.174C155.078 23.682 155.534 23.298 156.11 23.022C156.698 22.746 157.358 22.608 158.09 22.608ZM158.09 24.354C157.55 24.354 157.112 24.486 156.776 24.75C156.452 25.002 156.29 25.362 156.29 25.83C156.29 26.274 156.452 26.622 156.776 26.874C157.112 27.126 157.55 27.252 158.09 27.252C158.654 27.252 159.104 27.132 159.44 26.892C159.776 26.64 159.944 26.286 159.944 25.83C159.944 25.35 159.776 24.984 159.44 24.732C159.104 24.48 158.654 24.354 158.09 24.354ZM165.65 37.008H163.544V22.014H165.65V37.008ZM153.374 29.898C155.126 29.898 156.776 29.868 158.324 29.808C159.884 29.736 161.342 29.592 162.698 29.376L162.842 30.942C161.834 31.158 160.634 31.326 159.242 31.446V36.576H157.118V31.59C156.182 31.626 155.306 31.644 154.49 31.644C154.298 31.656 154.01 31.662 153.626 31.662L153.374 29.898ZM179.016 37.026H176.91V21.996H179.016V37.026ZM172.572 26.676C172.572 27.84 172.872 28.95 173.472 30.006C174.084 31.062 174.972 31.842 176.136 32.346L175.02 33.984C174.216 33.648 173.52 33.15 172.932 32.49C172.344 31.83 171.876 31.056 171.528 30.168C171.192 31.104 170.724 31.926 170.124 32.634C169.536 33.342 168.828 33.876 168 34.236L166.902 32.58C167.67 32.232 168.318 31.746 168.846 31.122C169.386 30.486 169.788 29.784 170.052 29.016C170.316 28.236 170.448 27.456 170.448 26.676V26.154H167.37V24.444H170.43V22.356H172.572V24.444H175.56V26.154H172.572V26.676ZM191.813 24.57H189.005C189.077 24.966 189.383 25.308 189.923 25.596C190.463 25.884 191.201 26.07 192.137 26.154L191.435 27.684C189.779 27.492 188.615 26.946 187.943 26.046C187.619 26.502 187.145 26.886 186.521 27.198C185.909 27.498 185.183 27.702 184.343 27.81L183.659 26.28C184.619 26.172 185.369 25.968 185.909 25.668C186.461 25.356 186.773 24.99 186.845 24.57H184.055V23.04H186.881V21.96H188.987V23.04H191.813V24.57ZM188.987 28.386C190.271 28.326 191.363 28.242 192.263 28.134L192.407 29.574C191.087 29.79 189.713 29.934 188.285 30.006C186.857 30.066 185.297 30.096 183.605 30.096L183.389 28.494C184.877 28.494 186.041 28.482 186.881 28.458V27.27H188.987V28.386ZM195.089 34.542H187.331V35.352H195.575V36.918H185.189V33.084H192.983V32.328H185.189V30.798H195.089V34.542ZM195.089 25.182H196.925V26.91H195.089V30.222H192.965V21.996H195.089V25.182ZM200.984 22.806C201.56 22.806 202.088 22.908 202.568 23.112C203.06 23.316 203.486 23.604 203.846 23.976H207.104V21.996H209.21V30.78H207.104V29.016H203.81C203.462 29.376 203.042 29.658 202.55 29.862C202.07 30.054 201.548 30.15 200.984 30.15C200.252 30.15 199.586 29.994 198.986 29.682C198.398 29.358 197.93 28.92 197.582 28.368C197.246 27.804 197.078 27.174 197.078 26.478C197.078 25.782 197.246 25.152 197.582 24.588C197.93 24.024 198.398 23.586 198.986 23.274C199.586 22.962 200.252 22.806 200.984 22.806ZM200.984 24.66C200.42 24.66 199.958 24.822 199.598 25.146C199.25 25.458 199.076 25.902 199.076 26.478C199.076 27.042 199.25 27.492 199.598 27.828C199.958 28.164 200.42 28.332 200.984 28.332C201.524 28.332 201.962 28.164 202.298 27.828C202.646 27.492 202.82 27.042 202.82 26.478C202.82 25.902 202.652 25.458 202.316 25.146C201.98 24.822 201.536 24.66 200.984 24.66ZM204.206 31.104C205.766 31.104 206.99 31.368 207.878 31.896C208.778 32.412 209.228 33.138 209.228 34.074C209.228 34.986 208.778 35.706 207.878 36.234C206.99 36.762 205.766 37.026 204.206 37.026C202.658 37.026 201.434 36.762 200.534 36.234C199.646 35.706 199.202 34.986 199.202 34.074C199.202 33.138 199.646 32.412 200.534 31.896C201.434 31.368 202.658 31.104 204.206 31.104ZM204.206 32.76C202.226 32.76 201.236 33.198 201.236 34.074C201.236 34.506 201.488 34.83 201.992 35.046C202.496 35.25 203.234 35.352 204.206 35.352C206.186 35.352 207.176 34.926 207.176 34.074C207.176 33.198 206.186 32.76 204.206 32.76ZM207.104 27.288V25.686H204.746C204.794 25.926 204.818 26.19 204.818 26.478C204.818 26.742 204.788 27.012 204.728 27.288H207.104ZM220.171 36H217.795L213.187 23.058H215.797L218.965 33.066L222.151 23.058H224.761L220.171 36ZM227.851 36H225.475V23.058H230.461C231.445 23.058 232.297 23.238 233.017 23.598C233.737 23.946 234.283 24.438 234.655 25.074C235.039 25.698 235.231 26.418 235.231 27.234C235.231 28.482 234.811 29.466 233.971 30.186C233.131 30.906 231.961 31.266 230.461 31.266H227.851V36ZM227.851 29.358H230.461C231.265 29.358 231.859 29.172 232.243 28.8C232.627 28.416 232.819 27.9 232.819 27.252C232.819 26.592 232.621 26.046 232.225 25.614C231.841 25.182 231.253 24.966 230.461 24.966H227.851V29.358ZM243.274 32.634C243.274 32.286 243.202 31.998 243.058 31.77C242.914 31.53 242.644 31.308 242.248 31.104C241.864 30.9 241.3 30.684 240.556 30.456C239.212 30.048 238.162 29.532 237.406 28.908C236.65 28.284 236.272 27.474 236.272 26.478C236.272 25.77 236.47 25.146 236.866 24.606C237.262 24.054 237.808 23.628 238.504 23.328C239.212 23.028 240.022 22.878 240.934 22.878C241.882 22.878 242.71 23.052 243.418 23.4C244.126 23.748 244.672 24.222 245.056 24.822C245.44 25.422 245.632 26.094 245.632 26.838H243.256C243.256 26.202 243.058 25.698 242.662 25.326C242.266 24.954 241.678 24.768 240.898 24.768C240.166 24.768 239.608 24.924 239.224 25.236C238.84 25.548 238.648 25.956 238.648 26.46C238.648 26.904 238.864 27.288 239.296 27.612C239.74 27.924 240.43 28.218 241.366 28.494C242.842 28.926 243.922 29.466 244.606 30.114C245.302 30.762 245.65 31.596 245.65 32.616C245.65 33.72 245.23 34.59 244.39 35.226C243.55 35.862 242.422 36.18 241.006 36.18C240.13 36.18 239.302 36.024 238.522 35.712C237.742 35.4 237.106 34.932 236.614 34.308C236.122 33.684 235.876 32.922 235.876 32.022H238.252C238.252 32.802 238.498 33.378 238.99 33.75C239.494 34.122 240.166 34.308 241.006 34.308C241.738 34.308 242.296 34.158 242.68 33.858C243.076 33.546 243.274 33.138 243.274 32.634Z" fill="white"/>
</g>
</g>
<defs>
<filter id="filter0_d_505_3552" x="0" y="0" width="330" height="60" filterUnits="userSpaceOnUse" color-interpolation-filters="sRGB">
<feFlood flood-opacity="0" result="BackgroundImageFix"/>
<feColorMatrix in="SourceAlpha" type="matrix" values="0 0 0 0 0 0 0 0 0 0 0 0 0 0 0 0 0 0 127 0" result="hardAlpha"/>
<feOffset/>
<feGaussianBlur stdDeviation="2.5"/>
<feComposite in2="hardAlpha" operator="out"/>
<feColorMatrix type="matrix" values="0 0 0 0 0 0 0 0 0 0 0 0 0 0 0 0 0 0 0.15 0"/>
<feBlend mode="normal" in2="BackgroundImageFix" result="effect1_dropShadow_505_3552"/>
<feBlend mode="normal" in="SourceGraphic" in2="effect1_dropShadow_505_3552" result="shape"/>
</filter>
<filter id="filter1_d_505_3552" x="79" y="11" width="38" height="38" filterUnits="userSpaceOnUse" color-interpolation-filters="sRGB">
<feFlood flood-opacity="0" result="BackgroundImageFix"/>
<feColorMatrix in="SourceAlpha" type="matrix" values="0 0 0 0 0 0 0 0 0 0 0 0 0 0 0 0 0 0 127 0" result="hardAlpha"/>
<feOffset/>
<feGaussianBlur stdDeviation="2"/>
<feComposite in2="hardAlpha" operator="out"/>
<feColorMatrix type="matrix" values="0 0 0 0 0.461538 0 0 0 0 0.108728 0 0 0 0 0.457073 0 0 0 1 0"/>
<feBlend mode="normal" in2="BackgroundImageFix" result="effect1_dropShadow_505_3552"/>
<feBlend mode="normal" in="SourceGraphic" in2="effect1_dropShadow_505_3552" result="shape"/>
</filter>
<filter id="filter2_d_505_3552" x="119.324" y="17.96" width="130.326" height="23.066" filterUnits="userSpaceOnUse" color-interpolation-filters="sRGB">
<feFlood flood-opacity="0" result="BackgroundImageFix"/>
<feColorMatrix in="SourceAlpha" type="matrix" values="0 0 0 0 0 0 0 0 0 0 0 0 0 0 0 0 0 0 127 0" result="hardAlpha"/>
<feOffset/>
<feGaussianBlur stdDeviation="2"/>
<feComposite in2="hardAlpha" operator="out"/>
<feColorMatrix type="matrix" values="0 0 0 0 0 0 0 0 0 0 0 0 0 0 0 0 0 0 0.5 0"/>
<feBlend mode="normal" in2="BackgroundImageFix" result="effect1_dropShadow_505_3552"/>
<feBlend mode="normal" in="SourceGraphic" in2="effect1_dropShadow_505_3552" result="shape"/>
</filter>
<linearGradient id="paint0_linear_505_3552" x1="5" y1="30" x2="325" y2="30" gradientUnits="userSpaceOnUse">
<stop stop-color="#D9488B"/>
<stop offset="1" stop-color="#2C63C7"/>
</linearGradient>
</defs>
</svg>
